<svg width="20" height="20" viewBox="0 0 20 20" fill="none" xmlns="http://www.w3.org/2000/svg">
<path d="M8.31895 10.7804L17.2192 19.6805C17.4251 19.8865 17.6999 20 17.9929 20C18.2859 20 18.5607 19.8865 18.7665 19.6805L19.422 19.0252C19.8485 18.5982 19.8485 17.9042 19.422 17.4779L11.9482 10.0041L19.4302 2.52209C19.6361 2.31608 19.7498 2.04145 19.7498 1.7486C19.7498 1.45543 19.6361 1.1808 19.4302 0.974625L18.7748 0.319509C18.5688 0.113494 18.2942 -4.75763e-07 18.0012 -4.75763e-07C17.7081 -4.75763e-07 17.4334 0.113494 17.2275 0.319509L8.31895 9.22773C8.11261 9.43439 7.99928 9.71033 7.99993 10.0037C7.99928 10.2981 8.11261 10.5739 8.31895 10.7804Z" fill="#A04955"/>
<path d="M11.4308 9.2196L2.53055 0.31951C2.3247 0.113495 2.0499 0 1.7569 0C1.46389 0 1.1891 0.113495 0.983244 0.31951L0.327802 0.974789C-0.0986982 1.40178 -0.0986982 2.09576 0.327802 2.52209L7.80156 9.99585L0.31951 17.4779C0.113658 17.6839 0 17.9586 0 18.2514C0 18.5446 0.113658 18.8192 0.31951 19.0254L0.974951 19.6805C1.18097 19.8865 1.4556 20 1.7486 20C2.04161 20 2.3164 19.8865 2.52226 19.6805L11.4308 10.7723C11.6371 10.5656 11.7505 10.2897 11.7498 9.99634C11.7505 9.70187 11.6371 9.4261 11.4308 9.2196Z" fill="#A04955"/>
</svg>
