<svg width="30" height="30" viewBox="0 0 30 30" fill="none" xmlns="http://www.w3.org/2000/svg">
<path d="M29.2499 12.99C29.249 12.9893 29.2483 12.9884 29.2476 12.9877L17.01 0.750505C16.4884 0.228653 15.7948 -0.0585938 15.0572 -0.0585938C14.3195 -0.0585938 13.626 0.228653 13.1041 0.750505L0.872866 12.9815C0.868746 12.9856 0.864397 12.99 0.860506 12.9941C-0.210663 14.0715 -0.208832 15.8194 0.86577 16.894C1.35672 17.3852 2.00492 17.6695 2.6982 17.6995C2.72658 17.7022 2.75496 17.7036 2.78358 17.7036H3.27109V26.7092C3.27109 28.4915 4.72129 29.9415 6.5036 29.9415H11.2914C11.7768 29.9415 12.1703 29.5478 12.1703 29.0626V22.002C12.1703 21.1888 12.832 20.5273 13.6452 20.5273H16.4691C17.2824 20.5273 17.9438 21.1888 17.9438 22.002V29.0626C17.9438 29.5478 18.3373 29.9415 18.8227 29.9415H23.6105C25.393 29.9415 26.843 28.4915 26.843 26.7092V17.7036H27.2953C28.0327 17.7036 28.7262 17.4163 29.2483 16.8943C30.3241 15.8181 30.3245 14.0669 29.2499 12.99ZM28.0053 15.6514C27.8155 15.8412 27.5633 15.9458 27.2953 15.9458H25.9641C25.4786 15.9458 25.0852 16.3392 25.0852 16.8247V26.7092C25.0852 27.5222 24.4237 28.1836 23.6105 28.1836H19.7016V22.002C19.7016 20.2197 18.2517 18.7695 16.4691 18.7695H13.6452C11.8626 18.7695 10.4124 20.2197 10.4124 22.002V28.1836H6.5036C5.69061 28.1836 5.02891 27.5222 5.02891 26.7092V16.8247C5.02891 16.3392 4.63546 15.9458 4.15 15.9458H2.84171C2.82798 15.9449 2.81447 15.9442 2.80051 15.9439C2.53867 15.9394 2.29308 15.8355 2.10906 15.6512C1.71767 15.2598 1.71767 14.6228 2.10906 14.2312C2.10929 14.2312 2.10929 14.231 2.10952 14.2308L2.1102 14.2301L14.3474 1.99334C14.5369 1.80359 14.7889 1.69922 15.0572 1.69922C15.3252 1.69922 15.5772 1.80359 15.7669 1.99334L28.0014 14.2276C28.0032 14.2294 28.0053 14.2312 28.0071 14.233C28.3964 14.6251 28.3957 15.2607 28.0053 15.6514Z" fill="black"/>
</svg>
